<svg width="25" height="2" viewBox="0 0 25 2" fill="none" xmlns="http://www.w3.org/2000/svg">
<path d="M23.9911 0.00111089C23.997 0.000370297 24.0033 0 24.0094 0C24.1429 0 24.2708 0.0244396 24.388 0.0686901C24.3909 0.0696159 24.3931 0.0707268 24.3956 0.0718377C24.5144 0.117755 24.6208 0.183482 24.7095 0.264207C24.8887 0.427138 25 0.652649 25 0.901304C25 1.02239 24.9729 1.13885 24.9245 1.24549C24.8741 1.35658 24.8006 1.45601 24.7095 1.53859C24.6189 1.62098 24.5101 1.68781 24.388 1.73392C24.2708 1.77798 24.1429 1.80261 24.0094 1.80261C24.0035 1.80261 23.997 1.80224 23.9911 1.8015C16.3304 1.8015 8.66957 1.80168 1.0087 1.80168C1.0028 1.80242 0.996696 1.80279 0.990389 1.80279C0.857333 1.80279 0.729364 1.77835 0.612178 1.7341C0.490108 1.68819 0.380856 1.62135 0.290118 1.53859C0.199583 1.45619 0.126342 1.35714 0.075683 1.24605C0.0270587 1.1394 0 1.02295 0 0.901489C0 0.780401 0.0268553 0.663943 0.0754795 0.557297C0.126138 0.446208 0.199583 0.346783 0.290322 0.264207C0.46956 0.101091 0.717157 0.000185149 0.990593 0.000185149C0.996899 0.000185149 1.003 0.000555446 1.0089 0.00129604C8.66957 0.00111089 16.3304 0.00111089 23.9911 0.00111089Z" fill="#526760"/>
</svg>
