<svg width="28" height="28" viewBox="0 0 28 28" fill="none" xmlns="http://www.w3.org/2000/svg">
<path d="M14 27.125C21.2487 27.125 27.125 21.2487 27.125 14C27.125 6.75126 21.2487 0.875 14 0.875C6.75126 0.875 0.875 6.75126 0.875 14C0.875 21.2487 6.75126 27.125 14 27.125Z" fill="url(#paint0_linear_214_9)"/>
<path d="M20.5499 8.57075C20.6668 7.81561 19.9488 7.21958 19.2774 7.51437L5.90452 13.3857C5.42303 13.5972 5.45825 14.3265 5.95763 14.4855L8.71541 15.3638C9.24181 15.5314 9.81172 15.4447 10.2714 15.1272L16.4891 10.8315C16.6766 10.702 16.8809 10.9686 16.7207 11.1337L12.2451 15.7481C11.8109 16.1957 11.8971 16.9542 12.4194 17.2817L17.4303 20.424C17.9923 20.7764 18.7153 20.4224 18.8204 19.7432L20.5499 8.57075Z" fill="white"/>
<defs>
<linearGradient id="paint0_linear_214_9" x1="14" y1="0.875" x2="14" y2="27.125" gradientUnits="userSpaceOnUse">
<stop stop-color="#37BBFE"/>
<stop offset="1" stop-color="#007DBB"/>
</linearGradient>
</defs>
</svg>
