<svg width="37" height="36" viewBox="0 0 37 36" fill="none" xmlns="http://www.w3.org/2000/svg">
<path d="M2.29166 1.375H5.53849C6.98791 1.375 7.71261 1.375 8.25822 1.76825C8.80382 2.1615 9.03299 2.84902 9.49134 4.22404L10.625 7.625" stroke="#374B4A" stroke-width="2.66667" stroke-linecap="round"/>
<path d="M31.4583 28.4583H11.7727C11.4681 28.4583 11.3159 28.4583 11.2003 28.4454C9.97616 28.3083 9.13758 27.1448 9.39466 25.9402C9.41891 25.8265 9.46708 25.6821 9.56339 25.3931C9.67033 25.0723 9.72379 24.9119 9.78287 24.7704C10.3876 23.3213 11.7557 22.335 13.3218 22.2196C13.4748 22.2083 13.6439 22.2083 13.982 22.2083H25.2083" stroke="#374B4A" stroke-width="2.66667" stroke-linecap="round" stroke-linejoin="round"/>
<path d="M24.5389 22.2083H18.2033C15.5382 22.2083 14.2057 22.2083 13.1621 21.5202C12.1185 20.8321 11.5936 19.6073 10.5437 17.1577L10.192 16.3371C8.5056 12.402 7.66237 10.4344 8.58864 9.02971C9.51489 7.625 11.6555 7.625 15.9367 7.625H26.9385C31.7281 7.625 34.1229 7.625 35.0262 9.18148C35.9296 10.738 34.7412 12.8173 32.365 16.9758L31.7744 18.0096C30.6035 20.0581 30.0183 21.0825 29.0483 21.6454C28.0783 22.2083 26.8985 22.2083 24.5389 22.2083Z" stroke="#374B4A" stroke-width="2.66667" stroke-linecap="round"/>
<path d="M30.4166 35.75C31.5672 35.75 32.5 34.8173 32.5 33.6667C32.5 32.5161 31.5672 31.5833 30.4166 31.5833C29.2661 31.5833 28.3333 32.5161 28.3333 33.6667C28.3333 34.8173 29.2661 35.75 30.4166 35.75Z" fill="#374B4A"/>
<path d="M13.75 35.75C14.9006 35.75 15.8333 34.8173 15.8333 33.6667C15.8333 32.5161 14.9006 31.5833 13.75 31.5833C12.5994 31.5833 11.6667 32.5161 11.6667 33.6667C11.6667 34.8173 12.5994 35.75 13.75 35.75Z" fill="#374B4A"/>
</svg>
