<svg width="32" height="32" viewBox="0 0 32 32" fill="none" xmlns="http://www.w3.org/2000/svg">
<path d="M0 16.0004C0 24.8376 7.16288 32.0003 15.9998 32C24.8371 32.0003 32 24.8376 32 16.0004C32.0006 7.16313 24.8371 0 15.9998 0C7.16288 0 0 7.16338 0 16.0004Z" fill="#AB91EA"/>
<path d="M32 16.0003C32.0001 15.0379 31.9103 14.097 31.7476 13.1813C31.736 13.1742 31.7247 13.1666 31.7136 13.1584C31.7006 13.1407 31.6939 13.1201 31.678 13.104C31.661 13.0867 26.6506 8.07684 26.6348 8.06071C26.4608 7.88446 26.1768 7.88246 26.0003 8.05609L10.989 22.85L10.9602 22.8197C10.9559 22.8151 10.9499 22.8136 10.9454 22.8093L6.01031 17.8698C5.83994 17.69 5.55631 17.6824 5.37631 17.8525C5.1965 18.0229 5.18863 18.3067 5.35906 18.4865L10.5164 23.9328C10.5208 23.9373 10.527 23.939 10.5314 23.9434L10.6098 24.0262C10.6141 24.0308 18.3615 31.7779 18.3615 31.7779C18.3657 31.7823 18.3719 31.7841 18.3763 31.7883L18.4061 31.8198C26.1016 30.6592 32 24.0196 32 16.0003Z" fill="#947ADB"/>
<path d="M26.6348 8.06083C26.4609 7.88458 26.1768 7.88258 26.0004 8.05621L10.8533 22.9838L6.01037 17.8697C5.84 17.6899 5.55644 17.6823 5.37637 17.8525C5.19656 18.0228 5.18869 18.3066 5.35912 18.4865L10.5165 23.9327C10.5993 24.0203 10.7138 24.0706 10.8345 24.0728H10.8422C10.96 24.0728 11.073 24.0266 11.1571 23.9438L26.6302 8.69521C26.8064 8.52133 26.8086 8.23727 26.6348 8.06083Z" fill="#F4F6F9"/>
</svg>
