<svg width="30" height="30" viewBox="0 0 30 30" fill="none" xmlns="http://www.w3.org/2000/svg">
<path d="M15 0C19.1414 0 22.892 1.67933 25.6061 4.39345C28.3213 7.10815 30 10.8582 30 14.9997C30 19.1412 28.3207 22.8919 25.6061 25.6066C22.892 28.3207 19.1414 30 15 30C10.8586 30 7.10801 28.3207 4.39336 25.6066C1.6793 22.8919 0 19.1412 0 14.9997C0 10.8582 1.67871 7.10815 4.39395 4.39345C7.10801 1.67933 10.8586 0 15 0ZM21.8396 13.8372V16.1628C21.8396 16.713 21.3873 17.166 20.8371 17.166H9.16289C8.6127 17.166 8.16035 16.7148 8.16035 16.1628V13.8372C8.16035 13.2858 8.61094 12.8346 9.16289 12.8346H20.8371C21.3891 12.8346 21.8396 13.2893 21.8396 13.8372ZM24.0264 5.97316C21.7172 3.66394 18.525 2.23481 15 2.23481C11.475 2.23481 8.28281 3.66394 5.97363 5.97316C3.66387 8.28298 2.23477 11.4746 2.23477 14.9997C2.23477 18.5248 3.66387 21.717 5.97305 24.0268C8.28281 26.3361 11.475 27.7652 15 27.7652C18.525 27.7652 21.7172 26.3361 24.0264 24.0268C26.3361 21.717 27.7652 18.5248 27.7652 14.9997C27.7652 11.4746 26.3361 8.28298 24.0264 5.97316Z" fill="#FC4032"/>
</svg>
