<svg width="28" height="28" viewBox="0 0 28 28" fill="none" xmlns="http://www.w3.org/2000/svg">
<path d="M21.5 0.875H6.5C3.3934 0.875 0.875 3.3934 0.875 6.5V21.5C0.875 24.6066 3.3934 27.125 6.5 27.125H21.5C24.6066 27.125 27.125 24.6066 27.125 21.5V6.5C27.125 3.3934 24.6066 0.875 21.5 0.875Z" fill="url(#paint0_radial_214_8)"/>
<path d="M21.5 0.875H6.5C3.3934 0.875 0.875 3.3934 0.875 6.5V21.5C0.875 24.6066 3.3934 27.125 6.5 27.125H21.5C24.6066 27.125 27.125 24.6066 27.125 21.5V6.5C27.125 3.3934 24.6066 0.875 21.5 0.875Z" fill="url(#paint1_radial_214_8)"/>
<path d="M21.5 0.875H6.5C3.3934 0.875 0.875 3.3934 0.875 6.5V21.5C0.875 24.6066 3.3934 27.125 6.5 27.125H21.5C24.6066 27.125 27.125 24.6066 27.125 21.5V6.5C27.125 3.3934 24.6066 0.875 21.5 0.875Z" fill="url(#paint2_radial_214_8)"/>
<path d="M20.5625 8.84375C20.5625 9.62037 19.9329 10.25 19.1562 10.25C18.3796 10.25 17.75 9.62037 17.75 8.84375C17.75 8.0671 18.3796 7.4375 19.1562 7.4375C19.9329 7.4375 20.5625 8.0671 20.5625 8.84375Z" fill="white"/>
<path fill-rule="evenodd" clip-rule="evenodd" d="M14 18.6875C16.5888 18.6875 18.6875 16.5888 18.6875 14C18.6875 11.4112 16.5888 9.3125 14 9.3125C11.4112 9.3125 9.3125 11.4112 9.3125 14C9.3125 16.5888 11.4112 18.6875 14 18.6875ZM14 16.8125C15.5533 16.8125 16.8125 15.5533 16.8125 14C16.8125 12.4467 15.5533 11.1875 14 11.1875C12.4467 11.1875 11.1875 12.4467 11.1875 14C11.1875 15.5533 12.4467 16.8125 14 16.8125Z" fill="white"/>
<path fill-rule="evenodd" clip-rule="evenodd" d="M4.625 13.625C4.625 10.4747 4.625 8.89953 5.23809 7.69631C5.77738 6.63789 6.63789 5.77738 7.69631 5.23809C8.89953 4.625 10.4747 4.625 13.625 4.625H14.375C17.5253 4.625 19.1005 4.625 20.3037 5.23809C21.3621 5.77738 22.2226 6.63789 22.7619 7.69631C23.375 8.89953 23.375 10.4747 23.375 13.625V14.375C23.375 17.5253 23.375 19.1005 22.7619 20.3037C22.2226 21.3621 21.3621 22.2226 20.3037 22.7619C19.1005 23.375 17.5253 23.375 14.375 23.375H13.625C10.4747 23.375 8.89953 23.375 7.69631 22.7619C6.63789 22.2226 5.77738 21.3621 5.23809 20.3037C4.625 19.1005 4.625 17.5253 4.625 14.375V13.625ZM13.625 6.5H14.375C15.9811 6.5 17.0728 6.50146 17.9168 6.57041C18.7389 6.63757 19.1593 6.7593 19.4525 6.90872C20.1581 7.26825 20.7317 7.84193 21.0912 8.5475C21.2407 8.84075 21.3625 9.26112 21.4296 10.0832C21.4985 10.9272 21.5 12.0189 21.5 13.625V14.375C21.5 15.9811 21.4985 17.0728 21.4296 17.9168C21.3625 18.7389 21.2407 19.1593 21.0912 19.4525C20.7317 20.1581 20.1581 20.7317 19.4525 21.0912C19.1593 21.2407 18.7389 21.3625 17.9168 21.4296C17.0728 21.4985 15.9811 21.5 14.375 21.5H13.625C12.0189 21.5 10.9272 21.4985 10.0832 21.4296C9.26112 21.3625 8.84075 21.2407 8.5475 21.0912C7.84193 20.7317 7.26825 20.1581 6.90872 19.4525C6.7593 19.1593 6.63757 18.7389 6.57041 17.9168C6.50146 17.0728 6.5 15.9811 6.5 14.375V13.625C6.5 12.0189 6.50146 10.9272 6.57041 10.0832C6.63757 9.26112 6.7593 8.84075 6.90872 8.5475C7.26825 7.84193 7.84193 7.26825 8.5475 6.90872C8.84075 6.7593 9.26112 6.63757 10.0832 6.57041C10.9272 6.50146 12.0189 6.5 13.625 6.5Z" fill="white"/>
<defs>
<radialGradient id="paint0_radial_214_8" cx="0" cy="0" r="1" gradientUnits="userSpaceOnUse" gradientTransform="translate(10.25 20.5625) rotate(-55.3758) scale(23.9246)">
<stop stop-color="#B13589"/>
<stop offset="0.79309" stop-color="#C62F94"/>
<stop offset="1" stop-color="#8A3AC8"/>
</radialGradient>
<radialGradient id="paint1_radial_214_8" cx="0" cy="0" r="1" gradientUnits="userSpaceOnUse" gradientTransform="translate(9.3125 28.0625) rotate(-65.1363) scale(21.1821)">
<stop stop-color="#E0E8B7"/>
<stop offset="0.444662" stop-color="#FB8A2E"/>
<stop offset="0.71474" stop-color="#E2425C"/>
<stop offset="1" stop-color="#E2425C" stop-opacity="0"/>
</radialGradient>
<radialGradient id="paint2_radial_214_8" cx="0" cy="0" r="1" gradientUnits="userSpaceOnUse" gradientTransform="translate(-0.53125 1.8125) rotate(-8.1301) scale(36.4602 7.79846)">
<stop offset="0.156701" stop-color="#406ADC"/>
<stop offset="0.467799" stop-color="#6A45BE"/>
<stop offset="1" stop-color="#6A45BE" stop-opacity="0"/>
</radialGradient>
</defs>
</svg>
