<svg width="20" height="20" viewBox="0 0 20 20" fill="none" xmlns="http://www.w3.org/2000/svg">
<mask id="path-1-inside-1_41_46" fill="white">
<path d="M19.5861 14.3934L16.5897 11.3981C16.459 11.2665 16.3035 11.1621 16.1322 11.0911C15.9609 11.0201 15.7771 10.9838 15.5916 10.9843H15.5902C15.213 10.9843 14.8584 11.1319 14.5921 11.3981L12.5945 13.395L6.60106 7.40362L8.59864 5.40673C9.1496 4.85596 9.1496 3.95919 8.59794 3.40842L5.60085 0.413082C5.47005 0.281708 5.3145 0.177558 5.14318 0.106655C4.97186 0.0357524 4.78818 -0.000496281 4.60277 5.13155e-06C4.22486 5.13155e-06 3.86956 0.147583 3.60327 0.414495L0.606182 3.41054C0.515062 3.50092 -0.274649 4.35532 0.100428 6.23288C0.54261 8.44231 2.39327 11.1891 5.60085 14.3956C10.1915 18.9846 13.0869 20 14.7503 20C15.9017 20 16.464 19.5135 16.5897 19.3878L19.5861 16.3925C19.8531 16.1255 20.0007 15.7704 20 15.3926C20 15.0155 19.8531 14.6604 19.5861 14.3934ZM15.5909 18.3886C15.5711 18.4084 13.1829 19.9767 6.59965 13.3964C-0.125606 6.6742 1.6078 4.40828 1.60497 4.40899L4.60206 1.41223L7.59914 4.40899L5.10216 6.9051C5.03651 6.97062 4.98442 7.04844 4.94889 7.1341C4.91335 7.21976 4.89506 7.31159 4.89506 7.40433C4.89506 7.49706 4.91335 7.58889 4.94889 7.67455C4.98442 7.76021 5.03651 7.83803 5.10216 7.90355L12.0944 14.8934C12.16 14.959 12.2378 15.0111 12.3235 15.0466C12.4092 15.0821 12.501 15.1004 12.5938 15.1004C12.6866 15.1004 12.7784 15.0821 12.8641 15.0466C12.9498 15.0111 13.0277 14.959 13.0932 14.8934L15.5902 12.3966L18.5873 15.3933L15.5909 18.3886Z"/>
</mask>
<path d="M19.5861 14.3934L16.5897 11.3981C16.459 11.2665 16.3035 11.1621 16.1322 11.0911C15.9609 11.0201 15.7771 10.9838 15.5916 10.9843H15.5902C15.213 10.9843 14.8584 11.1319 14.5921 11.3981L12.5945 13.395L6.60106 7.40362L8.59864 5.40673C9.1496 4.85596 9.1496 3.95919 8.59794 3.40842L5.60085 0.413082C5.47005 0.281708 5.3145 0.177558 5.14318 0.106655C4.97186 0.0357524 4.78818 -0.000496281 4.60277 5.13155e-06C4.22486 5.13155e-06 3.86956 0.147583 3.60327 0.414495L0.606182 3.41054C0.515062 3.50092 -0.274649 4.35532 0.100428 6.23288C0.54261 8.44231 2.39327 11.1891 5.60085 14.3956C10.1915 18.9846 13.0869 20 14.7503 20C15.9017 20 16.464 19.5135 16.5897 19.3878L19.5861 16.3925C19.8531 16.1255 20.0007 15.7704 20 15.3926C20 15.0155 19.8531 14.6604 19.5861 14.3934ZM15.5909 18.3886C15.5711 18.4084 13.1829 19.9767 6.59965 13.3964C-0.125606 6.6742 1.6078 4.40828 1.60497 4.40899L4.60206 1.41223L7.59914 4.40899L5.10216 6.9051C5.03651 6.97062 4.98442 7.04844 4.94889 7.1341C4.91335 7.21976 4.89506 7.31159 4.89506 7.40433C4.89506 7.49706 4.91335 7.58889 4.94889 7.67455C4.98442 7.76021 5.03651 7.83803 5.10216 7.90355L12.0944 14.8934C12.16 14.959 12.2378 15.0111 12.3235 15.0466C12.4092 15.0821 12.501 15.1004 12.5938 15.1004C12.6866 15.1004 12.7784 15.0821 12.8641 15.0466C12.9498 15.0111 13.0277 14.959 13.0932 14.8934L15.5902 12.3966L18.5873 15.3933L15.5909 18.3886Z" fill="#374B4A"/>
<path d="M16.5897 11.3981L13.041 14.9204L13.0479 14.9273L13.0548 14.9343L16.5897 11.3981ZM15.5916 10.9843V15.9843H15.5992L15.6068 15.9843L15.5916 10.9843ZM14.5921 11.3981L18.127 14.9343V14.9343L14.5921 11.3981ZM12.5945 13.395L9.0596 16.9311L12.5945 20.4648L16.1294 16.9312L12.5945 13.395ZM6.60106 7.40362L3.06614 3.86747L-0.471237 7.40362L3.06614 10.9398L6.60106 7.40362ZM8.59794 3.40842L5.06343 6.94499L5.06528 6.94683L8.59794 3.40842ZM5.60085 0.413082L2.05758 3.94088L2.06635 3.94965L5.60085 0.413082ZM4.60277 5.13155e-06V5.00002L4.61629 4.99999L4.60277 5.13155e-06ZM3.60327 0.414495L7.13819 3.95064L7.14287 3.94596L3.60327 0.414495ZM0.606182 3.41054L4.12732 6.96041L4.13422 6.95356L4.1411 6.94669L0.606182 3.41054ZM0.100428 6.23288L-4.80269 7.21237L-4.80235 7.21409L0.100428 6.23288ZM20 15.3926H15L15 15.4019L20 15.3926ZM15.5909 18.3886L19.1258 21.9248H19.1258L15.5909 18.3886ZM6.59965 13.3964L3.06491 16.9327L3.06491 16.9328L6.59965 13.3964ZM1.60497 4.40899L-1.93036 0.873255L-14.6948 13.6363L2.81726 9.2598L1.60497 4.40899ZM4.60206 1.41223L8.1374 -2.1235L4.60206 -5.65844L1.06672 -2.1235L4.60206 1.41223ZM7.59914 4.40899L11.1341 7.94513L14.671 4.4094L11.1345 0.873255L7.59914 4.40899ZM5.10216 6.9051L8.63408 10.4443L8.63708 10.4412L5.10216 6.9051ZM5.10216 7.90355L8.63708 4.3674L8.63408 4.3644L5.10216 7.90355ZM12.0944 14.8934L15.6323 11.3602L15.6293 11.3572L12.0944 14.8934ZM13.0932 14.8934L9.55779 11.3577L9.55529 11.3602L13.0932 14.8934ZM15.5902 12.3966L19.1255 8.86083L15.5901 5.3258L12.0548 8.86091L15.5902 12.3966ZM18.5873 15.3933L22.1222 18.9295L25.6592 15.3937L22.1226 11.8576L18.5873 15.3933ZM23.121 10.8573L20.1246 7.86196L13.0548 14.9343L16.0512 17.9296L23.121 10.8573ZM20.1384 7.87582C19.5411 7.27402 18.8302 6.79696 18.047 6.47228L14.2173 15.7099C13.7769 15.5273 13.377 15.2589 13.041 14.9204L20.1384 7.87582ZM18.047 6.47228C17.2639 6.14761 16.4241 5.98177 15.5764 5.98435L15.6068 15.9843C15.1301 15.9858 14.6578 15.8925 14.2173 15.7099L18.047 6.47228ZM15.5916 5.98433H15.5902V15.9843H15.5916V5.98433ZM15.5902 5.98433C13.8817 5.98433 12.2572 6.66232 11.0572 7.86196L18.127 14.9343C17.4596 15.6015 16.5442 15.9843 15.5902 15.9843V5.98433ZM11.0572 7.86196L9.0596 9.85885L16.1294 16.9312L18.127 14.9343L11.0572 7.86196ZM16.1294 9.85885L10.136 3.86747L3.06614 10.9398L9.0596 16.9311L16.1294 9.85885ZM10.136 10.9398L12.1336 8.94287L5.06372 1.87058L3.06614 3.86747L10.136 10.9398ZM12.1336 8.94287C14.6383 6.43897 14.6383 2.37368 12.1306 -0.12999L5.06528 6.94683C3.66087 5.5447 3.66087 3.27295 5.06372 1.87058L12.1336 8.94287ZM12.1324 -0.128143L9.13536 -3.12348L2.06635 3.94965L5.06343 6.94498L12.1324 -0.128143ZM9.14412 -3.1147C8.54703 -3.71441 7.83704 -4.18974 7.05524 -4.51331L3.23112 4.72662C2.79195 4.54486 2.39307 4.27782 2.05759 3.94087L9.14412 -3.1147ZM7.05524 -4.51331C6.27344 -4.83687 5.43529 -5.00226 4.58924 -4.99998L4.61629 4.99999C4.14108 5.00127 3.67029 4.90837 3.23112 4.72662L7.05524 -4.51331ZM4.60277 -4.99999C2.89689 -4.99999 1.26804 -4.32412 0.063666 -3.11697L7.14287 3.94596C6.47108 4.61929 5.55284 5.00001 4.60277 5.00001V-4.99999ZM0.0683465 -3.12165L-2.92874 -0.125608L4.1411 6.94669L7.13819 3.95064L0.0683465 -3.12165ZM-2.91495 -0.139335C-3.95981 0.897065 -5.56726 3.38509 -4.80269 7.21237L5.00355 5.25339C4.985 5.16054 5.04274 5.39187 4.89432 5.8131C4.75924 6.19648 4.50869 6.58213 4.12732 6.96041L-2.91495 -0.139335ZM-4.80235 7.21409C-4.05126 10.967 -1.25762 14.6093 2.06593 17.9317L9.13577 10.8594C6.04417 7.76889 5.13648 5.91759 5.00321 5.25167L-4.80235 7.21409ZM2.06593 17.9317C6.96 22.8241 11.0747 25 14.7503 25V15C15.099 15 13.423 15.1451 9.13577 10.8594L2.06593 17.9317ZM14.7503 25C17.4789 25 19.2554 23.7929 20.1246 22.9239L13.0548 15.8517C13.3418 15.5647 13.6491 15.3431 13.9745 15.1943C14.3166 15.0378 14.5967 15 14.7503 15V25ZM20.1246 22.9239L23.121 19.9286L16.0512 12.8563L13.0548 15.8517L20.1246 22.9239ZM23.121 19.9286C24.3231 18.7269 25.0032 17.098 25 15.3833L15 15.4019C14.9982 14.4427 15.383 13.5242 16.0512 12.8563L23.121 19.9286ZM25 15.3926C25 13.6904 24.3269 12.0628 23.121 10.8573L16.0512 17.9296C15.3792 17.2579 15 16.3407 15 15.3926H25ZM12.056 14.8525C12.3147 14.5939 12.5517 14.4184 12.5587 14.4131C12.6303 14.3585 12.6896 14.3164 12.7259 14.291C12.8019 14.238 12.8664 14.1961 12.9125 14.167C13.0087 14.1063 13.0961 14.0559 13.1722 14.0146C13.3271 13.9304 13.4759 13.8616 13.6169 13.8054C13.9032 13.6912 14.1672 13.6252 14.3976 13.5924C14.8743 13.5244 15.1031 13.6114 14.9972 13.5796C14.6934 13.4882 13.145 12.8693 10.1344 9.86008L3.06491 16.9328C6.63755 20.5038 9.57494 22.391 12.1159 23.1555C13.4325 23.5517 14.6735 23.6542 15.8093 23.4922C16.3692 23.4124 16.8745 23.2721 17.3209 23.0941C17.5419 23.0059 17.7505 22.9078 17.9458 22.8017C18.042 22.7494 18.1448 22.6899 18.2516 22.6225C18.303 22.59 18.3716 22.5454 18.4505 22.4903C18.4883 22.464 18.5488 22.421 18.6213 22.3657C18.6292 22.3597 18.8668 22.1837 19.1258 21.9248L12.056 14.8525ZM10.1344 9.86008C7.03665 6.76375 6.4537 5.23105 6.3838 4.98985C6.36542 4.92643 6.45836 5.21584 6.36203 5.75195C6.3155 6.0109 6.2308 6.29162 6.09886 6.58282C6.03352 6.72704 5.95928 6.86789 5.87723 7.0049C5.83596 7.07381 5.79519 7.13761 5.75621 7.19587C5.73662 7.22516 5.72083 7.24801 5.71418 7.25761C5.70228 7.27479 5.72346 7.24433 5.74006 7.2199C5.74027 7.2196 5.79227 7.14386 5.85205 7.04763C5.89411 6.97869 6.02669 6.74319 6.11198 6.57393C6.38265 5.8834 4.97044 0.711187 0.392693 -0.441826L2.81726 9.2598C-1.76048 8.10678 -3.17269 2.93458 -2.90203 2.24408C-2.81676 2.07485 -2.68422 1.83941 -2.64219 1.77053C-2.58249 1.67443 -2.53063 1.5989 -2.53061 1.59887C-2.51438 1.57499 -2.49377 1.54535 -2.50643 1.56363C-2.51461 1.57544 -2.5327 1.60162 -2.55529 1.63538C-2.60024 1.70259 -2.64976 1.77989 -2.70193 1.867C-2.80578 2.04041 -2.9104 2.23644 -3.00974 2.45567C-3.20967 2.89691 -3.37678 3.40706 -3.48034 3.98337C-3.69073 5.15422 -3.61027 6.43011 -3.221 7.77336C-2.47558 10.3455 -0.56261 13.3069 3.06491 16.9327L10.1344 9.86008ZM5.14031 7.94472L8.1374 4.94797L1.06672 -2.1235L-1.93036 0.873255L5.14031 7.94472ZM1.06672 4.94797L4.06381 7.94472L11.1345 0.873255L8.1374 -2.1235L1.06672 4.94797ZM4.06422 0.872839L1.56724 3.36895L8.63708 10.4412L11.1341 7.94513L4.06422 0.872839ZM1.57025 3.36595C1.03933 3.89579 0.618023 4.52518 0.330538 5.21815L9.56723 9.05005C9.35083 9.5717 9.03369 10.0455 8.63408 10.4443L1.57025 3.36595ZM0.330538 5.21815C0.0430562 5.91112 -0.104943 6.65402 -0.104943 7.40433H9.89506C9.89506 7.96916 9.78364 8.5284 9.56723 9.05005L0.330538 5.21815ZM-0.104943 7.40433C-0.104943 8.15463 0.0430562 8.89753 0.330538 9.5905L9.56723 5.7586C9.78364 6.28025 9.89506 6.83949 9.89506 7.40433H-0.104943ZM0.330538 9.5905C0.618023 10.2835 1.03933 10.9129 1.57025 11.4427L8.63408 4.3644C9.03369 4.7632 9.35083 5.23695 9.56723 5.7586L0.330538 9.5905ZM1.56724 11.4397L8.5595 18.4295L15.6293 11.3572L8.63708 4.3674L1.56724 11.4397ZM8.55649 18.4265C9.0865 18.9572 9.71591 19.3782 10.4087 19.6654L14.2383 10.4278C14.7597 10.6439 15.2334 10.9608 15.6323 11.3602L8.55649 18.4265ZM10.4087 19.6654C11.1015 19.9526 11.844 20.1004 12.5938 20.1004V10.1004C13.1581 10.1004 13.7169 10.2116 14.2383 10.4278L10.4087 19.6654ZM12.5938 20.1004C13.3437 20.1004 14.0862 19.9526 14.7789 19.6654L10.9493 10.4278C11.4707 10.2116 12.0295 10.1004 12.5938 10.1004V20.1004ZM14.7789 19.6654C15.4717 19.3782 16.1011 18.9572 16.6311 18.4265L9.55529 11.3602C9.95421 10.9608 10.4279 10.6439 10.9493 10.4278L14.7789 19.6654ZM16.6286 18.429L19.1256 15.9322L12.0548 8.86091L9.55779 11.3577L16.6286 18.429ZM12.0549 15.9323L15.0519 18.929L22.1226 11.8576L19.1255 8.86083L12.0549 15.9323ZM15.0524 11.8572L12.056 14.8525L19.1258 21.9248L22.1222 18.9295L15.0524 11.8572Z" fill="#374B4A" mask="url(#path-1-inside-1_41_46)"/>
</svg>
